M48
; DRILL file {KiCad (5.1.6)-1} date 12/04/20 16:37:23
; FORMAT={-:-/ absolute / inch / decimal}
; #@! TF.CreationDate,2020-12-04T16:37:23+02:00
; #@! TF.GenerationSoftware,Kicad,Pcbnew,(5.1.6)-1
; #@! TF.FileFunction,Plated,1,2,PTH
FMAT,2
INCH
T1C0.0157
T2C0.0300
T3C0.0315
T4C0.0354
T5C0.0394
T6C0.1102
%
G90
G05
T1
X5.6102Y-4.1634
X5.7559Y-2.2047
X5.7874Y-2.372
X5.8661Y-4.9508
X5.9252Y-2.687
X6.002Y-2.5197
X6.1169Y-5.1024
X6.1319Y-4.3701
X6.2232Y-4.2421
X6.2291Y-5.0591
X6.4075Y-2.6083
X6.426Y-4.2008
X6.4783Y-2.2402
X6.6929Y-3.7795
X6.7323Y-4.9606
X6.7657Y-3.9341
X6.9193Y-3.9006
X6.9535Y-5.1024
X6.9587Y-4.3701
X7.0559Y-4.2421
X7.0598Y-5.0591
X7.0866Y-3.8583
X7.1732Y-2.4252
X7.2547Y-4.2008
X7.4311Y-4.3701
X7.437Y-4.0778
X7.4902Y-3.7795
X7.5Y-4.9508
X7.5394Y-4.0817
X7.5394Y-4.2421
X7.5886Y-3.7795
X7.5925Y-4.0837
X7.5925Y-5.1004
X7.6339Y-4.0866
X7.6339Y-5.0531
X7.6752Y-4.0876
X7.6752Y-4.8543
X7.687Y-3.7795
X7.7854Y-3.7795
X7.7882Y-5.1024
X7.7953Y-4.3701
X7.8839Y-3.7795
X7.8846Y-4.2421
X7.9035Y-3.9567
X7.9193Y-2.3898
X8.0933Y-4.2008
X8.1919Y-3.1762
T2
X7.7937Y-4.0602
X7.7937Y-4.9602
X7.8937Y-4.0602
X7.8937Y-4.9602
X7.9937Y-4.0602
X7.9937Y-4.9602
X8.0937Y-4.0602
X8.0937Y-4.9602
X8.1937Y-4.0602
X8.1937Y-4.9602
X6.1307Y-4.0602
X6.1307Y-4.9602
X6.2307Y-4.0602
X6.2307Y-4.9602
X6.3307Y-4.0602
X6.3307Y-4.9602
X6.4307Y-4.0602
X6.4307Y-4.9602
X6.5307Y-4.0602
X6.5307Y-4.9602
X6.9622Y-4.0602
X6.9622Y-4.9602
X7.0622Y-4.0602
X7.0622Y-4.9602
X7.1622Y-4.0602
X7.1622Y-4.9602
X7.2622Y-4.0602
X7.2622Y-4.9602
X7.3622Y-4.0602
X7.3622Y-4.9602
X5.2992Y-4.0602
X5.2992Y-4.9602
X5.3992Y-4.0602
X5.3992Y-4.9602
X5.4992Y-4.0602
X5.4992Y-4.9602
X5.5992Y-4.0602
X5.5992Y-4.9602
X5.6992Y-4.0602
X5.6992Y-4.9602
T3
X6.7638Y-2.2933
X6.8425Y-2.2933
X6.9213Y-2.2933
X6.7618Y-2.502
X6.8406Y-2.502
X6.9193Y-2.502
X7.3354Y-2.0965
X7.4354Y-2.1965
X7.5354Y-2.0965
X6.0866Y-2.2028
X6.1866Y-2.1028
X6.2866Y-2.2028
T4
X5.4886Y-2.378
X5.5886Y-2.378
X5.1083Y-1.7898
X5.1083Y-1.8898
X8.1693Y-1.3213
X8.1693Y-1.4213
X8.1008Y-2.0492
X8.2008Y-2.0492
X6.9882Y-1.337
X6.9882Y-1.437
X8.0988Y-2.3839
X8.1988Y-2.3839
X5.1181Y-1.4748
X5.1181Y-1.5748
X5.7835Y-3.0571
X6.1835Y-3.0571
X5.4906Y-2.0709
X5.5906Y-2.0709
T5
X6.6339Y-2.835
X6.6339Y-3.435
X6.7339Y-2.835
X6.7339Y-3.435
X6.8339Y-2.835
X6.8339Y-3.435
X6.9339Y-2.835
X6.9339Y-3.435
X7.0339Y-2.835
X7.0339Y-3.435
X7.1339Y-2.835
X7.1339Y-3.435
X7.2339Y-2.835
X7.2339Y-3.435
X7.3339Y-2.835
X7.3339Y-3.435
X7.4339Y-2.835
X7.4339Y-3.435
X7.5339Y-2.835
X7.5339Y-3.435
X7.6339Y-2.835
X7.6339Y-3.435
X7.7339Y-2.835
X7.7339Y-3.435
X7.8339Y-2.835
X7.8339Y-3.435
X7.9339Y-2.835
X7.9339Y-3.435
X8.0339Y-2.835
X8.0339Y-3.435
X5.9335Y-2.8858
X6.0335Y-2.8858
T6
X8.3661Y-3.7402
X6.5945Y-1.7717
X5.1476Y-2.1949
T0
M30
