%TF.GenerationSoftware,KiCad,Pcbnew,(5.1.6)-1*%
%TF.CreationDate,2020-12-04T16:37:21+02:00*%
%TF.ProjectId,Tahometrs,5461686f-6d65-4747-9273-2e6b69636164,rev?*%
%TF.SameCoordinates,Original*%
%TF.FileFunction,Soldermask,Bot*%
%TF.FilePolarity,Negative*%
%FSLAX46Y46*%
G04 Gerber Fmt 4.6, Leading zero omitted, Abs format (unit mm)*
G04 Created by KiCad (PCBNEW (5.1.6)-1) date 2020-12-04 16:37:21*
%MOMM*%
%LPD*%
G01*
G04 APERTURE LIST*
%ADD10C,4.900000*%
%ADD11R,1.700000X1.700000*%
%ADD12O,1.700000X1.700000*%
%ADD13R,1.900000X1.900000*%
%ADD14C,1.900000*%
%ADD15O,1.900000X1.900000*%
%ADD16O,1.450000X1.450000*%
%ADD17R,1.450000X1.450000*%
%ADD18C,1.540000*%
%ADD19C,1.624000*%
%ADD20R,1.800000X1.800000*%
%ADD21O,1.800000X1.800000*%
G04 APERTURE END LIST*
D10*
%TO.C,REF\u002A\u002A*%
X130750000Y-55750000D03*
%TD*%
%TO.C,REF\u002A\u002A*%
X167500000Y-45000000D03*
%TD*%
%TO.C,REF\u002A\u002A*%
X212500000Y-95000000D03*
%TD*%
D11*
%TO.C,A1*%
X168500000Y-87250000D03*
D12*
X201520000Y-72010000D03*
X171040000Y-87250000D03*
X198980000Y-72010000D03*
X173580000Y-87250000D03*
X196440000Y-72010000D03*
X176120000Y-87250000D03*
X193900000Y-72010000D03*
X178660000Y-87250000D03*
X191360000Y-72010000D03*
X181200000Y-87250000D03*
X188820000Y-72010000D03*
X183740000Y-87250000D03*
X186280000Y-72010000D03*
X186280000Y-87250000D03*
X183740000Y-72010000D03*
X188820000Y-87250000D03*
X181200000Y-72010000D03*
X191360000Y-87250000D03*
X178660000Y-72010000D03*
X193900000Y-87250000D03*
X176120000Y-72010000D03*
X196440000Y-87250000D03*
X173580000Y-72010000D03*
X198980000Y-87250000D03*
X171040000Y-72010000D03*
X201520000Y-87250000D03*
X168500000Y-72010000D03*
X204060000Y-87250000D03*
X204060000Y-72010000D03*
%TD*%
D13*
%TO.C,D2*%
X205710000Y-60550000D03*
D14*
X208250000Y-60550000D03*
%TD*%
%TO.C,D3*%
X130000000Y-37460000D03*
D13*
X130000000Y-40000000D03*
%TD*%
D14*
%TO.C,D4*%
X207500000Y-36100000D03*
D13*
X207500000Y-33560000D03*
%TD*%
%TO.C,D5*%
X146900000Y-77650000D03*
D15*
X157060000Y-77650000D03*
%TD*%
D16*
%TO.C,J1*%
X175800000Y-58250000D03*
X173800000Y-58250000D03*
D17*
X171800000Y-58250000D03*
%TD*%
%TO.C,J3*%
X175750000Y-63550000D03*
D16*
X173750000Y-63550000D03*
X171750000Y-63550000D03*
%TD*%
D18*
%TO.C,RV1*%
X154600000Y-55950000D03*
X157140000Y-53410000D03*
X159680000Y-55950000D03*
%TD*%
%TO.C,RV2*%
X186320000Y-53250000D03*
X188860000Y-55790000D03*
X191400000Y-53250000D03*
%TD*%
D19*
%TO.C,U1*%
X134600001Y-125990001D03*
X137140001Y-125990001D03*
X139680001Y-125990001D03*
X142220001Y-125990001D03*
X144760001Y-125990001D03*
X144760001Y-103130001D03*
X142220001Y-103130001D03*
X139680001Y-103130001D03*
X137140001Y-103130001D03*
X134600001Y-103130001D03*
%TD*%
%TO.C,U2*%
X155720001Y-103130001D03*
X158260001Y-103130001D03*
X160800001Y-103130001D03*
X163340001Y-103130001D03*
X165880001Y-103130001D03*
X165880001Y-125990001D03*
X163340001Y-125990001D03*
X160800001Y-125990001D03*
X158260001Y-125990001D03*
X155720001Y-125990001D03*
%TD*%
%TO.C,U3*%
X176840001Y-125990001D03*
X179380001Y-125990001D03*
X181920001Y-125990001D03*
X184460001Y-125990001D03*
X187000001Y-125990001D03*
X187000001Y-103130001D03*
X184460001Y-103130001D03*
X181920001Y-103130001D03*
X179380001Y-103130001D03*
X176840001Y-103130001D03*
%TD*%
%TO.C,U5*%
X197960001Y-103130001D03*
X200500001Y-103130001D03*
X203040001Y-103130001D03*
X205580001Y-103130001D03*
X208120001Y-103130001D03*
X208120001Y-125990001D03*
X205580001Y-125990001D03*
X203040001Y-125990001D03*
X200500001Y-125990001D03*
X197960001Y-125990001D03*
%TD*%
D20*
%TO.C,J2*%
X153250000Y-73300000D03*
D21*
X150710000Y-73300000D03*
%TD*%
D13*
%TO.C,D1*%
X141950000Y-60400000D03*
D14*
X139410000Y-60400000D03*
%TD*%
%TO.C,D6*%
X208300000Y-52050000D03*
D13*
X205760000Y-52050000D03*
%TD*%
%TO.C,D7*%
X142000000Y-52600000D03*
D14*
X139460000Y-52600000D03*
%TD*%
%TO.C,D8*%
X129750000Y-48000000D03*
D13*
X129750000Y-45460000D03*
%TD*%
%TO.C,D9*%
X177500000Y-36500000D03*
D14*
X177500000Y-33960000D03*
%TD*%
M02*
