%TF.GenerationSoftware,KiCad,Pcbnew,(5.1.6)-1*%
%TF.CreationDate,2020-12-04T16:37:21+02:00*%
%TF.ProjectId,Tahometrs,5461686f-6d65-4747-9273-2e6b69636164,rev?*%
%TF.SameCoordinates,Original*%
%TF.FileFunction,Soldermask,Top*%
%TF.FilePolarity,Negative*%
%FSLAX46Y46*%
G04 Gerber Fmt 4.6, Leading zero omitted, Abs format (unit mm)*
G04 Created by KiCad (PCBNEW (5.1.6)-1) date 2020-12-04 16:37:21*
%MOMM*%
%LPD*%
G01*
G04 APERTURE LIST*
%ADD10C,4.900000*%
%ADD11R,1.200000X4.700000*%
%ADD12R,10.900000X9.500000*%
%ADD13R,1.700000X1.700000*%
%ADD14O,1.700000X1.700000*%
%ADD15R,1.900000X1.900000*%
%ADD16C,1.900000*%
%ADD17O,1.900000X1.900000*%
%ADD18O,1.450000X1.450000*%
%ADD19R,1.450000X1.450000*%
%ADD20R,1.500000X1.100000*%
%ADD21C,1.540000*%
%ADD22R,1.100000X1.500000*%
%ADD23C,1.624000*%
%ADD24R,1.800000X1.800000*%
%ADD25O,1.800000X1.800000*%
%ADD26R,4.500000X3.500000*%
G04 APERTURE END LIST*
D10*
%TO.C,REF\u002A\u002A*%
X130750000Y-55750000D03*
%TD*%
%TO.C,REF\u002A\u002A*%
X167500000Y-45000000D03*
%TD*%
%TO.C,REF\u002A\u002A*%
X212500000Y-95000000D03*
%TD*%
%TO.C,C5*%
G36*
G01*
X203325000Y-57821738D02*
X203325000Y-58778262D01*
G75*
G02*
X203053262Y-59050000I-271738J0D01*
G01*
X202346738Y-59050000D01*
G75*
G02*
X202075000Y-58778262I0J271738D01*
G01*
X202075000Y-57821738D01*
G75*
G02*
X202346738Y-57550000I271738J0D01*
G01*
X203053262Y-57550000D01*
G75*
G02*
X203325000Y-57821738I0J-271738D01*
G01*
G37*
G36*
G01*
X201275000Y-57821738D02*
X201275000Y-58778262D01*
G75*
G02*
X201003262Y-59050000I-271738J0D01*
G01*
X200296738Y-59050000D01*
G75*
G02*
X200025000Y-58778262I0J271738D01*
G01*
X200025000Y-57821738D01*
G75*
G02*
X200296738Y-57550000I271738J0D01*
G01*
X201003262Y-57550000D01*
G75*
G02*
X201275000Y-57821738I0J-271738D01*
G01*
G37*
%TD*%
%TO.C,R1*%
G36*
G01*
X204578262Y-91475000D02*
X203621738Y-91475000D01*
G75*
G02*
X203350000Y-91203262I0J271738D01*
G01*
X203350000Y-90496738D01*
G75*
G02*
X203621738Y-90225000I271738J0D01*
G01*
X204578262Y-90225000D01*
G75*
G02*
X204850000Y-90496738I0J-271738D01*
G01*
X204850000Y-91203262D01*
G75*
G02*
X204578262Y-91475000I-271738J0D01*
G01*
G37*
G36*
G01*
X204578262Y-93525000D02*
X203621738Y-93525000D01*
G75*
G02*
X203350000Y-93253262I0J271738D01*
G01*
X203350000Y-92546738D01*
G75*
G02*
X203621738Y-92275000I271738J0D01*
G01*
X204578262Y-92275000D01*
G75*
G02*
X204850000Y-92546738I0J-271738D01*
G01*
X204850000Y-93253262D01*
G75*
G02*
X204578262Y-93525000I-271738J0D01*
G01*
G37*
%TD*%
%TO.C,R2*%
G36*
G01*
X201978262Y-93525000D02*
X201021738Y-93525000D01*
G75*
G02*
X200750000Y-93253262I0J271738D01*
G01*
X200750000Y-92546738D01*
G75*
G02*
X201021738Y-92275000I271738J0D01*
G01*
X201978262Y-92275000D01*
G75*
G02*
X202250000Y-92546738I0J-271738D01*
G01*
X202250000Y-93253262D01*
G75*
G02*
X201978262Y-93525000I-271738J0D01*
G01*
G37*
G36*
G01*
X201978262Y-91475000D02*
X201021738Y-91475000D01*
G75*
G02*
X200750000Y-91203262I0J271738D01*
G01*
X200750000Y-90496738D01*
G75*
G02*
X201021738Y-90225000I271738J0D01*
G01*
X201978262Y-90225000D01*
G75*
G02*
X202250000Y-90496738I0J-271738D01*
G01*
X202250000Y-91203262D01*
G75*
G02*
X201978262Y-91475000I-271738J0D01*
G01*
G37*
%TD*%
%TO.C,R3*%
G36*
G01*
X199578262Y-91475000D02*
X198621738Y-91475000D01*
G75*
G02*
X198350000Y-91203262I0J271738D01*
G01*
X198350000Y-90496738D01*
G75*
G02*
X198621738Y-90225000I271738J0D01*
G01*
X199578262Y-90225000D01*
G75*
G02*
X199850000Y-90496738I0J-271738D01*
G01*
X199850000Y-91203262D01*
G75*
G02*
X199578262Y-91475000I-271738J0D01*
G01*
G37*
G36*
G01*
X199578262Y-93525000D02*
X198621738Y-93525000D01*
G75*
G02*
X198350000Y-93253262I0J271738D01*
G01*
X198350000Y-92546738D01*
G75*
G02*
X198621738Y-92275000I271738J0D01*
G01*
X199578262Y-92275000D01*
G75*
G02*
X199850000Y-92546738I0J-271738D01*
G01*
X199850000Y-93253262D01*
G75*
G02*
X199578262Y-93525000I-271738J0D01*
G01*
G37*
%TD*%
%TO.C,R4*%
G36*
G01*
X196978262Y-93525000D02*
X196021738Y-93525000D01*
G75*
G02*
X195750000Y-93253262I0J271738D01*
G01*
X195750000Y-92546738D01*
G75*
G02*
X196021738Y-92275000I271738J0D01*
G01*
X196978262Y-92275000D01*
G75*
G02*
X197250000Y-92546738I0J-271738D01*
G01*
X197250000Y-93253262D01*
G75*
G02*
X196978262Y-93525000I-271738J0D01*
G01*
G37*
G36*
G01*
X196978262Y-91475000D02*
X196021738Y-91475000D01*
G75*
G02*
X195750000Y-91203262I0J271738D01*
G01*
X195750000Y-90496738D01*
G75*
G02*
X196021738Y-90225000I271738J0D01*
G01*
X196978262Y-90225000D01*
G75*
G02*
X197250000Y-90496738I0J-271738D01*
G01*
X197250000Y-91203262D01*
G75*
G02*
X196978262Y-91475000I-271738J0D01*
G01*
G37*
%TD*%
%TO.C,R5*%
G36*
G01*
X194578262Y-93525000D02*
X193621738Y-93525000D01*
G75*
G02*
X193350000Y-93253262I0J271738D01*
G01*
X193350000Y-92546738D01*
G75*
G02*
X193621738Y-92275000I271738J0D01*
G01*
X194578262Y-92275000D01*
G75*
G02*
X194850000Y-92546738I0J-271738D01*
G01*
X194850000Y-93253262D01*
G75*
G02*
X194578262Y-93525000I-271738J0D01*
G01*
G37*
G36*
G01*
X194578262Y-91475000D02*
X193621738Y-91475000D01*
G75*
G02*
X193350000Y-91203262I0J271738D01*
G01*
X193350000Y-90496738D01*
G75*
G02*
X193621738Y-90225000I271738J0D01*
G01*
X194578262Y-90225000D01*
G75*
G02*
X194850000Y-90496738I0J-271738D01*
G01*
X194850000Y-91203262D01*
G75*
G02*
X194578262Y-91475000I-271738J0D01*
G01*
G37*
%TD*%
%TO.C,R6*%
G36*
G01*
X191978262Y-91475000D02*
X191021738Y-91475000D01*
G75*
G02*
X190750000Y-91203262I0J271738D01*
G01*
X190750000Y-90496738D01*
G75*
G02*
X191021738Y-90225000I271738J0D01*
G01*
X191978262Y-90225000D01*
G75*
G02*
X192250000Y-90496738I0J-271738D01*
G01*
X192250000Y-91203262D01*
G75*
G02*
X191978262Y-91475000I-271738J0D01*
G01*
G37*
G36*
G01*
X191978262Y-93525000D02*
X191021738Y-93525000D01*
G75*
G02*
X190750000Y-93253262I0J271738D01*
G01*
X190750000Y-92546738D01*
G75*
G02*
X191021738Y-92275000I271738J0D01*
G01*
X191978262Y-92275000D01*
G75*
G02*
X192250000Y-92546738I0J-271738D01*
G01*
X192250000Y-93253262D01*
G75*
G02*
X191978262Y-93525000I-271738J0D01*
G01*
G37*
%TD*%
%TO.C,R7*%
G36*
G01*
X189378262Y-93525000D02*
X188421738Y-93525000D01*
G75*
G02*
X188150000Y-93253262I0J271738D01*
G01*
X188150000Y-92546738D01*
G75*
G02*
X188421738Y-92275000I271738J0D01*
G01*
X189378262Y-92275000D01*
G75*
G02*
X189650000Y-92546738I0J-271738D01*
G01*
X189650000Y-93253262D01*
G75*
G02*
X189378262Y-93525000I-271738J0D01*
G01*
G37*
G36*
G01*
X189378262Y-91475000D02*
X188421738Y-91475000D01*
G75*
G02*
X188150000Y-91203262I0J271738D01*
G01*
X188150000Y-90496738D01*
G75*
G02*
X188421738Y-90225000I271738J0D01*
G01*
X189378262Y-90225000D01*
G75*
G02*
X189650000Y-90496738I0J-271738D01*
G01*
X189650000Y-91203262D01*
G75*
G02*
X189378262Y-91475000I-271738J0D01*
G01*
G37*
%TD*%
%TO.C,R17*%
G36*
G01*
X208758262Y-48640000D02*
X207801738Y-48640000D01*
G75*
G02*
X207530000Y-48368262I0J271738D01*
G01*
X207530000Y-47661738D01*
G75*
G02*
X207801738Y-47390000I271738J0D01*
G01*
X208758262Y-47390000D01*
G75*
G02*
X209030000Y-47661738I0J-271738D01*
G01*
X209030000Y-48368262D01*
G75*
G02*
X208758262Y-48640000I-271738J0D01*
G01*
G37*
G36*
G01*
X208758262Y-46590000D02*
X207801738Y-46590000D01*
G75*
G02*
X207530000Y-46318262I0J271738D01*
G01*
X207530000Y-45611738D01*
G75*
G02*
X207801738Y-45340000I271738J0D01*
G01*
X208758262Y-45340000D01*
G75*
G02*
X209030000Y-45611738I0J-271738D01*
G01*
X209030000Y-46318262D01*
G75*
G02*
X208758262Y-46590000I-271738J0D01*
G01*
G37*
%TD*%
%TO.C,R19*%
G36*
G01*
X188125000Y-66678262D02*
X188125000Y-65721738D01*
G75*
G02*
X188396738Y-65450000I271738J0D01*
G01*
X189103262Y-65450000D01*
G75*
G02*
X189375000Y-65721738I0J-271738D01*
G01*
X189375000Y-66678262D01*
G75*
G02*
X189103262Y-66950000I-271738J0D01*
G01*
X188396738Y-66950000D01*
G75*
G02*
X188125000Y-66678262I0J271738D01*
G01*
G37*
G36*
G01*
X186075000Y-66678262D02*
X186075000Y-65721738D01*
G75*
G02*
X186346738Y-65450000I271738J0D01*
G01*
X187053262Y-65450000D01*
G75*
G02*
X187325000Y-65721738I0J-271738D01*
G01*
X187325000Y-66678262D01*
G75*
G02*
X187053262Y-66950000I-271738J0D01*
G01*
X186346738Y-66950000D01*
G75*
G02*
X186075000Y-66678262I0J271738D01*
G01*
G37*
%TD*%
D11*
%TO.C,U4*%
X148450000Y-82825000D03*
X146750000Y-82825000D03*
X145050000Y-82825000D03*
X143350000Y-82825000D03*
X141650000Y-82825000D03*
D12*
X145050000Y-91975000D03*
%TD*%
%TO.C,U7*%
G36*
G01*
X185800000Y-59370000D02*
X185800000Y-59020000D01*
G75*
G02*
X185975000Y-58845000I175000J0D01*
G01*
X187675000Y-58845000D01*
G75*
G02*
X187850000Y-59020000I0J-175000D01*
G01*
X187850000Y-59370000D01*
G75*
G02*
X187675000Y-59545000I-175000J0D01*
G01*
X185975000Y-59545000D01*
G75*
G02*
X185800000Y-59370000I0J175000D01*
G01*
G37*
G36*
G01*
X185800000Y-60640000D02*
X185800000Y-60290000D01*
G75*
G02*
X185975000Y-60115000I175000J0D01*
G01*
X187675000Y-60115000D01*
G75*
G02*
X187850000Y-60290000I0J-175000D01*
G01*
X187850000Y-60640000D01*
G75*
G02*
X187675000Y-60815000I-175000J0D01*
G01*
X185975000Y-60815000D01*
G75*
G02*
X185800000Y-60640000I0J175000D01*
G01*
G37*
G36*
G01*
X185800000Y-61910000D02*
X185800000Y-61560000D01*
G75*
G02*
X185975000Y-61385000I175000J0D01*
G01*
X187675000Y-61385000D01*
G75*
G02*
X187850000Y-61560000I0J-175000D01*
G01*
X187850000Y-61910000D01*
G75*
G02*
X187675000Y-62085000I-175000J0D01*
G01*
X185975000Y-62085000D01*
G75*
G02*
X185800000Y-61910000I0J175000D01*
G01*
G37*
G36*
G01*
X185800000Y-63180000D02*
X185800000Y-62830000D01*
G75*
G02*
X185975000Y-62655000I175000J0D01*
G01*
X187675000Y-62655000D01*
G75*
G02*
X187850000Y-62830000I0J-175000D01*
G01*
X187850000Y-63180000D01*
G75*
G02*
X187675000Y-63355000I-175000J0D01*
G01*
X185975000Y-63355000D01*
G75*
G02*
X185800000Y-63180000I0J175000D01*
G01*
G37*
G36*
G01*
X190750000Y-63180000D02*
X190750000Y-62830000D01*
G75*
G02*
X190925000Y-62655000I175000J0D01*
G01*
X192625000Y-62655000D01*
G75*
G02*
X192800000Y-62830000I0J-175000D01*
G01*
X192800000Y-63180000D01*
G75*
G02*
X192625000Y-63355000I-175000J0D01*
G01*
X190925000Y-63355000D01*
G75*
G02*
X190750000Y-63180000I0J175000D01*
G01*
G37*
G36*
G01*
X190750000Y-61910000D02*
X190750000Y-61560000D01*
G75*
G02*
X190925000Y-61385000I175000J0D01*
G01*
X192625000Y-61385000D01*
G75*
G02*
X192800000Y-61560000I0J-175000D01*
G01*
X192800000Y-61910000D01*
G75*
G02*
X192625000Y-62085000I-175000J0D01*
G01*
X190925000Y-62085000D01*
G75*
G02*
X190750000Y-61910000I0J175000D01*
G01*
G37*
G36*
G01*
X190750000Y-60640000D02*
X190750000Y-60290000D01*
G75*
G02*
X190925000Y-60115000I175000J0D01*
G01*
X192625000Y-60115000D01*
G75*
G02*
X192800000Y-60290000I0J-175000D01*
G01*
X192800000Y-60640000D01*
G75*
G02*
X192625000Y-60815000I-175000J0D01*
G01*
X190925000Y-60815000D01*
G75*
G02*
X190750000Y-60640000I0J175000D01*
G01*
G37*
G36*
G01*
X190750000Y-59370000D02*
X190750000Y-59020000D01*
G75*
G02*
X190925000Y-58845000I175000J0D01*
G01*
X192625000Y-58845000D01*
G75*
G02*
X192800000Y-59020000I0J-175000D01*
G01*
X192800000Y-59370000D01*
G75*
G02*
X192625000Y-59545000I-175000J0D01*
G01*
X190925000Y-59545000D01*
G75*
G02*
X190750000Y-59370000I0J175000D01*
G01*
G37*
%TD*%
D13*
%TO.C,A1*%
X168500000Y-87250000D03*
D14*
X201520000Y-72010000D03*
X171040000Y-87250000D03*
X198980000Y-72010000D03*
X173580000Y-87250000D03*
X196440000Y-72010000D03*
X176120000Y-87250000D03*
X193900000Y-72010000D03*
X178660000Y-87250000D03*
X191360000Y-72010000D03*
X181200000Y-87250000D03*
X188820000Y-72010000D03*
X183740000Y-87250000D03*
X186280000Y-72010000D03*
X186280000Y-87250000D03*
X183740000Y-72010000D03*
X188820000Y-87250000D03*
X181200000Y-72010000D03*
X191360000Y-87250000D03*
X178660000Y-72010000D03*
X193900000Y-87250000D03*
X176120000Y-72010000D03*
X196440000Y-87250000D03*
X173580000Y-72010000D03*
X198980000Y-87250000D03*
X171040000Y-72010000D03*
X201520000Y-87250000D03*
X168500000Y-72010000D03*
X204060000Y-87250000D03*
X204060000Y-72010000D03*
%TD*%
%TO.C,C1*%
G36*
G01*
X155710000Y-82500000D02*
X157790000Y-82500000D01*
G75*
G02*
X158050000Y-82760000I0J-260000D01*
G01*
X158050000Y-86740000D01*
G75*
G02*
X157790000Y-87000000I-260000J0D01*
G01*
X155710000Y-87000000D01*
G75*
G02*
X155450000Y-86740000I0J260000D01*
G01*
X155450000Y-82760000D01*
G75*
G02*
X155710000Y-82500000I260000J0D01*
G01*
G37*
G36*
G01*
X155710000Y-89900000D02*
X157790000Y-89900000D01*
G75*
G02*
X158050000Y-90160000I0J-260000D01*
G01*
X158050000Y-94140000D01*
G75*
G02*
X157790000Y-94400000I-260000J0D01*
G01*
X155710000Y-94400000D01*
G75*
G02*
X155450000Y-94140000I0J260000D01*
G01*
X155450000Y-90160000D01*
G75*
G02*
X155710000Y-89900000I260000J0D01*
G01*
G37*
%TD*%
%TO.C,C2*%
G36*
G01*
X133210000Y-82150000D02*
X135290000Y-82150000D01*
G75*
G02*
X135550000Y-82410000I0J-260000D01*
G01*
X135550000Y-85990000D01*
G75*
G02*
X135290000Y-86250000I-260000J0D01*
G01*
X133210000Y-86250000D01*
G75*
G02*
X132950000Y-85990000I0J260000D01*
G01*
X132950000Y-82410000D01*
G75*
G02*
X133210000Y-82150000I260000J0D01*
G01*
G37*
G36*
G01*
X133210000Y-88250000D02*
X135290000Y-88250000D01*
G75*
G02*
X135550000Y-88510000I0J-260000D01*
G01*
X135550000Y-92090000D01*
G75*
G02*
X135290000Y-92350000I-260000J0D01*
G01*
X133210000Y-92350000D01*
G75*
G02*
X132950000Y-92090000I0J260000D01*
G01*
X132950000Y-88510000D01*
G75*
G02*
X133210000Y-88250000I260000J0D01*
G01*
G37*
%TD*%
%TO.C,C4*%
G36*
G01*
X144525000Y-58578262D02*
X144525000Y-57621738D01*
G75*
G02*
X144796738Y-57350000I271738J0D01*
G01*
X145503262Y-57350000D01*
G75*
G02*
X145775000Y-57621738I0J-271738D01*
G01*
X145775000Y-58578262D01*
G75*
G02*
X145503262Y-58850000I-271738J0D01*
G01*
X144796738Y-58850000D01*
G75*
G02*
X144525000Y-58578262I0J271738D01*
G01*
G37*
G36*
G01*
X146575000Y-58578262D02*
X146575000Y-57621738D01*
G75*
G02*
X146846738Y-57350000I271738J0D01*
G01*
X147553262Y-57350000D01*
G75*
G02*
X147825000Y-57621738I0J-271738D01*
G01*
X147825000Y-58578262D01*
G75*
G02*
X147553262Y-58850000I-271738J0D01*
G01*
X146846738Y-58850000D01*
G75*
G02*
X146575000Y-58578262I0J271738D01*
G01*
G37*
%TD*%
D15*
%TO.C,D2*%
X205710000Y-60550000D03*
D16*
X208250000Y-60550000D03*
%TD*%
%TO.C,D3*%
X130000000Y-37460000D03*
D15*
X130000000Y-40000000D03*
%TD*%
D16*
%TO.C,D4*%
X207500000Y-36100000D03*
D15*
X207500000Y-33560000D03*
%TD*%
%TO.C,D5*%
X146900000Y-77650000D03*
D17*
X157060000Y-77650000D03*
%TD*%
D18*
%TO.C,J1*%
X175800000Y-58250000D03*
X173800000Y-58250000D03*
D19*
X171800000Y-58250000D03*
%TD*%
%TO.C,J3*%
X175750000Y-63550000D03*
D18*
X173750000Y-63550000D03*
X171750000Y-63550000D03*
%TD*%
D20*
%TO.C,Q7*%
X149550000Y-59150000D03*
X151750000Y-58200000D03*
X151750000Y-60100000D03*
%TD*%
%TO.C,Q8*%
X197400000Y-52900000D03*
X197400000Y-54800000D03*
X199600000Y-53850000D03*
%TD*%
%TO.C,Q9*%
X154450000Y-62050000D03*
X154450000Y-63950000D03*
X156650000Y-63000000D03*
%TD*%
%TO.C,Q10*%
X195000000Y-58700000D03*
X197200000Y-57750000D03*
X197200000Y-59650000D03*
%TD*%
%TO.C,R8*%
G36*
G01*
X186728262Y-91475000D02*
X185771738Y-91475000D01*
G75*
G02*
X185500000Y-91203262I0J271738D01*
G01*
X185500000Y-90496738D01*
G75*
G02*
X185771738Y-90225000I271738J0D01*
G01*
X186728262Y-90225000D01*
G75*
G02*
X187000000Y-90496738I0J-271738D01*
G01*
X187000000Y-91203262D01*
G75*
G02*
X186728262Y-91475000I-271738J0D01*
G01*
G37*
G36*
G01*
X186728262Y-93525000D02*
X185771738Y-93525000D01*
G75*
G02*
X185500000Y-93253262I0J271738D01*
G01*
X185500000Y-92546738D01*
G75*
G02*
X185771738Y-92275000I271738J0D01*
G01*
X186728262Y-92275000D01*
G75*
G02*
X187000000Y-92546738I0J-271738D01*
G01*
X187000000Y-93253262D01*
G75*
G02*
X186728262Y-93525000I-271738J0D01*
G01*
G37*
%TD*%
%TO.C,R9*%
G36*
G01*
X184228262Y-93525000D02*
X183271738Y-93525000D01*
G75*
G02*
X183000000Y-93253262I0J271738D01*
G01*
X183000000Y-92546738D01*
G75*
G02*
X183271738Y-92275000I271738J0D01*
G01*
X184228262Y-92275000D01*
G75*
G02*
X184500000Y-92546738I0J-271738D01*
G01*
X184500000Y-93253262D01*
G75*
G02*
X184228262Y-93525000I-271738J0D01*
G01*
G37*
G36*
G01*
X184228262Y-91475000D02*
X183271738Y-91475000D01*
G75*
G02*
X183000000Y-91203262I0J271738D01*
G01*
X183000000Y-90496738D01*
G75*
G02*
X183271738Y-90225000I271738J0D01*
G01*
X184228262Y-90225000D01*
G75*
G02*
X184500000Y-90496738I0J-271738D01*
G01*
X184500000Y-91203262D01*
G75*
G02*
X184228262Y-91475000I-271738J0D01*
G01*
G37*
%TD*%
%TO.C,R10*%
G36*
G01*
X181678262Y-91475000D02*
X180721738Y-91475000D01*
G75*
G02*
X180450000Y-91203262I0J271738D01*
G01*
X180450000Y-90496738D01*
G75*
G02*
X180721738Y-90225000I271738J0D01*
G01*
X181678262Y-90225000D01*
G75*
G02*
X181950000Y-90496738I0J-271738D01*
G01*
X181950000Y-91203262D01*
G75*
G02*
X181678262Y-91475000I-271738J0D01*
G01*
G37*
G36*
G01*
X181678262Y-93525000D02*
X180721738Y-93525000D01*
G75*
G02*
X180450000Y-93253262I0J271738D01*
G01*
X180450000Y-92546738D01*
G75*
G02*
X180721738Y-92275000I271738J0D01*
G01*
X181678262Y-92275000D01*
G75*
G02*
X181950000Y-92546738I0J-271738D01*
G01*
X181950000Y-93253262D01*
G75*
G02*
X181678262Y-93525000I-271738J0D01*
G01*
G37*
%TD*%
%TO.C,R11*%
G36*
G01*
X142621738Y-73075000D02*
X143578262Y-73075000D01*
G75*
G02*
X143850000Y-73346738I0J-271738D01*
G01*
X143850000Y-74053262D01*
G75*
G02*
X143578262Y-74325000I-271738J0D01*
G01*
X142621738Y-74325000D01*
G75*
G02*
X142350000Y-74053262I0J271738D01*
G01*
X142350000Y-73346738D01*
G75*
G02*
X142621738Y-73075000I271738J0D01*
G01*
G37*
G36*
G01*
X142621738Y-75125000D02*
X143578262Y-75125000D01*
G75*
G02*
X143850000Y-75396738I0J-271738D01*
G01*
X143850000Y-76103262D01*
G75*
G02*
X143578262Y-76375000I-271738J0D01*
G01*
X142621738Y-76375000D01*
G75*
G02*
X142350000Y-76103262I0J271738D01*
G01*
X142350000Y-75396738D01*
G75*
G02*
X142621738Y-75125000I271738J0D01*
G01*
G37*
%TD*%
%TO.C,R12*%
G36*
G01*
X142575000Y-79128262D02*
X142575000Y-78171738D01*
G75*
G02*
X142846738Y-77900000I271738J0D01*
G01*
X143553262Y-77900000D01*
G75*
G02*
X143825000Y-78171738I0J-271738D01*
G01*
X143825000Y-79128262D01*
G75*
G02*
X143553262Y-79400000I-271738J0D01*
G01*
X142846738Y-79400000D01*
G75*
G02*
X142575000Y-79128262I0J271738D01*
G01*
G37*
G36*
G01*
X140525000Y-79128262D02*
X140525000Y-78171738D01*
G75*
G02*
X140796738Y-77900000I271738J0D01*
G01*
X141503262Y-77900000D01*
G75*
G02*
X141775000Y-78171738I0J-271738D01*
G01*
X141775000Y-79128262D01*
G75*
G02*
X141503262Y-79400000I-271738J0D01*
G01*
X140796738Y-79400000D01*
G75*
G02*
X140525000Y-79128262I0J271738D01*
G01*
G37*
%TD*%
%TO.C,R13*%
G36*
G01*
X204528262Y-77375000D02*
X203571738Y-77375000D01*
G75*
G02*
X203300000Y-77103262I0J271738D01*
G01*
X203300000Y-76396738D01*
G75*
G02*
X203571738Y-76125000I271738J0D01*
G01*
X204528262Y-76125000D01*
G75*
G02*
X204800000Y-76396738I0J-271738D01*
G01*
X204800000Y-77103262D01*
G75*
G02*
X204528262Y-77375000I-271738J0D01*
G01*
G37*
G36*
G01*
X204528262Y-75325000D02*
X203571738Y-75325000D01*
G75*
G02*
X203300000Y-75053262I0J271738D01*
G01*
X203300000Y-74346738D01*
G75*
G02*
X203571738Y-74075000I271738J0D01*
G01*
X204528262Y-74075000D01*
G75*
G02*
X204800000Y-74346738I0J-271738D01*
G01*
X204800000Y-75053262D01*
G75*
G02*
X204528262Y-75325000I-271738J0D01*
G01*
G37*
%TD*%
%TO.C,R14*%
G36*
G01*
X144475000Y-63178262D02*
X144475000Y-62221738D01*
G75*
G02*
X144746738Y-61950000I271738J0D01*
G01*
X145453262Y-61950000D01*
G75*
G02*
X145725000Y-62221738I0J-271738D01*
G01*
X145725000Y-63178262D01*
G75*
G02*
X145453262Y-63450000I-271738J0D01*
G01*
X144746738Y-63450000D01*
G75*
G02*
X144475000Y-63178262I0J271738D01*
G01*
G37*
G36*
G01*
X146525000Y-63178262D02*
X146525000Y-62221738D01*
G75*
G02*
X146796738Y-61950000I271738J0D01*
G01*
X147503262Y-61950000D01*
G75*
G02*
X147775000Y-62221738I0J-271738D01*
G01*
X147775000Y-63178262D01*
G75*
G02*
X147503262Y-63450000I-271738J0D01*
G01*
X146796738Y-63450000D01*
G75*
G02*
X146525000Y-63178262I0J271738D01*
G01*
G37*
%TD*%
%TO.C,R15*%
G36*
G01*
X201275000Y-62371738D02*
X201275000Y-63328262D01*
G75*
G02*
X201003262Y-63600000I-271738J0D01*
G01*
X200296738Y-63600000D01*
G75*
G02*
X200025000Y-63328262I0J271738D01*
G01*
X200025000Y-62371738D01*
G75*
G02*
X200296738Y-62100000I271738J0D01*
G01*
X201003262Y-62100000D01*
G75*
G02*
X201275000Y-62371738I0J-271738D01*
G01*
G37*
G36*
G01*
X203325000Y-62371738D02*
X203325000Y-63328262D01*
G75*
G02*
X203053262Y-63600000I-271738J0D01*
G01*
X202346738Y-63600000D01*
G75*
G02*
X202075000Y-63328262I0J271738D01*
G01*
X202075000Y-62371738D01*
G75*
G02*
X202346738Y-62100000I271738J0D01*
G01*
X203053262Y-62100000D01*
G75*
G02*
X203325000Y-62371738I0J-271738D01*
G01*
G37*
%TD*%
%TO.C,R16*%
G36*
G01*
X156025000Y-67028262D02*
X156025000Y-66071738D01*
G75*
G02*
X156296738Y-65800000I271738J0D01*
G01*
X157003262Y-65800000D01*
G75*
G02*
X157275000Y-66071738I0J-271738D01*
G01*
X157275000Y-67028262D01*
G75*
G02*
X157003262Y-67300000I-271738J0D01*
G01*
X156296738Y-67300000D01*
G75*
G02*
X156025000Y-67028262I0J271738D01*
G01*
G37*
G36*
G01*
X153975000Y-67028262D02*
X153975000Y-66071738D01*
G75*
G02*
X154246738Y-65800000I271738J0D01*
G01*
X154953262Y-65800000D01*
G75*
G02*
X155225000Y-66071738I0J-271738D01*
G01*
X155225000Y-67028262D01*
G75*
G02*
X154953262Y-67300000I-271738J0D01*
G01*
X154246738Y-67300000D01*
G75*
G02*
X153975000Y-67028262I0J271738D01*
G01*
G37*
%TD*%
%TO.C,R18*%
G36*
G01*
X159071738Y-65375000D02*
X160028262Y-65375000D01*
G75*
G02*
X160300000Y-65646738I0J-271738D01*
G01*
X160300000Y-66353262D01*
G75*
G02*
X160028262Y-66625000I-271738J0D01*
G01*
X159071738Y-66625000D01*
G75*
G02*
X158800000Y-66353262I0J271738D01*
G01*
X158800000Y-65646738D01*
G75*
G02*
X159071738Y-65375000I271738J0D01*
G01*
G37*
G36*
G01*
X159071738Y-67425000D02*
X160028262Y-67425000D01*
G75*
G02*
X160300000Y-67696738I0J-271738D01*
G01*
X160300000Y-68403262D01*
G75*
G02*
X160028262Y-68675000I-271738J0D01*
G01*
X159071738Y-68675000D01*
G75*
G02*
X158800000Y-68403262I0J271738D01*
G01*
X158800000Y-67696738D01*
G75*
G02*
X159071738Y-67425000I271738J0D01*
G01*
G37*
%TD*%
%TO.C,R20*%
G36*
G01*
X136175000Y-79078262D02*
X136175000Y-78121738D01*
G75*
G02*
X136446738Y-77850000I271738J0D01*
G01*
X137153262Y-77850000D01*
G75*
G02*
X137425000Y-78121738I0J-271738D01*
G01*
X137425000Y-79078262D01*
G75*
G02*
X137153262Y-79350000I-271738J0D01*
G01*
X136446738Y-79350000D01*
G75*
G02*
X136175000Y-79078262I0J271738D01*
G01*
G37*
G36*
G01*
X138225000Y-79078262D02*
X138225000Y-78121738D01*
G75*
G02*
X138496738Y-77850000I271738J0D01*
G01*
X139203262Y-77850000D01*
G75*
G02*
X139475000Y-78121738I0J-271738D01*
G01*
X139475000Y-79078262D01*
G75*
G02*
X139203262Y-79350000I-271738J0D01*
G01*
X138496738Y-79350000D01*
G75*
G02*
X138225000Y-79078262I0J271738D01*
G01*
G37*
%TD*%
%TO.C,R21*%
G36*
G01*
X155875000Y-60078262D02*
X155875000Y-59121738D01*
G75*
G02*
X156146738Y-58850000I271738J0D01*
G01*
X156853262Y-58850000D01*
G75*
G02*
X157125000Y-59121738I0J-271738D01*
G01*
X157125000Y-60078262D01*
G75*
G02*
X156853262Y-60350000I-271738J0D01*
G01*
X156146738Y-60350000D01*
G75*
G02*
X155875000Y-60078262I0J271738D01*
G01*
G37*
G36*
G01*
X153825000Y-60078262D02*
X153825000Y-59121738D01*
G75*
G02*
X154096738Y-58850000I271738J0D01*
G01*
X154803262Y-58850000D01*
G75*
G02*
X155075000Y-59121738I0J-271738D01*
G01*
X155075000Y-60078262D01*
G75*
G02*
X154803262Y-60350000I-271738J0D01*
G01*
X154096738Y-60350000D01*
G75*
G02*
X153825000Y-60078262I0J271738D01*
G01*
G37*
%TD*%
%TO.C,R22*%
G36*
G01*
X197775000Y-62221738D02*
X197775000Y-63178262D01*
G75*
G02*
X197503262Y-63450000I-271738J0D01*
G01*
X196796738Y-63450000D01*
G75*
G02*
X196525000Y-63178262I0J271738D01*
G01*
X196525000Y-62221738D01*
G75*
G02*
X196796738Y-61950000I271738J0D01*
G01*
X197503262Y-61950000D01*
G75*
G02*
X197775000Y-62221738I0J-271738D01*
G01*
G37*
G36*
G01*
X195725000Y-62221738D02*
X195725000Y-63178262D01*
G75*
G02*
X195453262Y-63450000I-271738J0D01*
G01*
X194746738Y-63450000D01*
G75*
G02*
X194475000Y-63178262I0J271738D01*
G01*
X194475000Y-62221738D01*
G75*
G02*
X194746738Y-61950000I271738J0D01*
G01*
X195453262Y-61950000D01*
G75*
G02*
X195725000Y-62221738I0J-271738D01*
G01*
G37*
%TD*%
%TO.C,R23*%
G36*
G01*
X148875000Y-63078262D02*
X148875000Y-62121738D01*
G75*
G02*
X149146738Y-61850000I271738J0D01*
G01*
X149853262Y-61850000D01*
G75*
G02*
X150125000Y-62121738I0J-271738D01*
G01*
X150125000Y-63078262D01*
G75*
G02*
X149853262Y-63350000I-271738J0D01*
G01*
X149146738Y-63350000D01*
G75*
G02*
X148875000Y-63078262I0J271738D01*
G01*
G37*
G36*
G01*
X150925000Y-63078262D02*
X150925000Y-62121738D01*
G75*
G02*
X151196738Y-61850000I271738J0D01*
G01*
X151903262Y-61850000D01*
G75*
G02*
X152175000Y-62121738I0J-271738D01*
G01*
X152175000Y-63078262D01*
G75*
G02*
X151903262Y-63350000I-271738J0D01*
G01*
X151196738Y-63350000D01*
G75*
G02*
X150925000Y-63078262I0J271738D01*
G01*
G37*
%TD*%
%TO.C,R24*%
G36*
G01*
X195378262Y-53575000D02*
X194421738Y-53575000D01*
G75*
G02*
X194150000Y-53303262I0J271738D01*
G01*
X194150000Y-52596738D01*
G75*
G02*
X194421738Y-52325000I271738J0D01*
G01*
X195378262Y-52325000D01*
G75*
G02*
X195650000Y-52596738I0J-271738D01*
G01*
X195650000Y-53303262D01*
G75*
G02*
X195378262Y-53575000I-271738J0D01*
G01*
G37*
G36*
G01*
X195378262Y-55625000D02*
X194421738Y-55625000D01*
G75*
G02*
X194150000Y-55353262I0J271738D01*
G01*
X194150000Y-54646738D01*
G75*
G02*
X194421738Y-54375000I271738J0D01*
G01*
X195378262Y-54375000D01*
G75*
G02*
X195650000Y-54646738I0J-271738D01*
G01*
X195650000Y-55353262D01*
G75*
G02*
X195378262Y-55625000I-271738J0D01*
G01*
G37*
%TD*%
%TO.C,R25*%
G36*
G01*
X201871738Y-52075000D02*
X202828262Y-52075000D01*
G75*
G02*
X203100000Y-52346738I0J-271738D01*
G01*
X203100000Y-53053262D01*
G75*
G02*
X202828262Y-53325000I-271738J0D01*
G01*
X201871738Y-53325000D01*
G75*
G02*
X201600000Y-53053262I0J271738D01*
G01*
X201600000Y-52346738D01*
G75*
G02*
X201871738Y-52075000I271738J0D01*
G01*
G37*
G36*
G01*
X201871738Y-54125000D02*
X202828262Y-54125000D01*
G75*
G02*
X203100000Y-54396738I0J-271738D01*
G01*
X203100000Y-55103262D01*
G75*
G02*
X202828262Y-55375000I-271738J0D01*
G01*
X201871738Y-55375000D01*
G75*
G02*
X201600000Y-55103262I0J271738D01*
G01*
X201600000Y-54396738D01*
G75*
G02*
X201871738Y-54125000I271738J0D01*
G01*
G37*
%TD*%
%TO.C,R26*%
G36*
G01*
X150775000Y-56478262D02*
X150775000Y-55521738D01*
G75*
G02*
X151046738Y-55250000I271738J0D01*
G01*
X151753262Y-55250000D01*
G75*
G02*
X152025000Y-55521738I0J-271738D01*
G01*
X152025000Y-56478262D01*
G75*
G02*
X151753262Y-56750000I-271738J0D01*
G01*
X151046738Y-56750000D01*
G75*
G02*
X150775000Y-56478262I0J271738D01*
G01*
G37*
G36*
G01*
X148725000Y-56478262D02*
X148725000Y-55521738D01*
G75*
G02*
X148996738Y-55250000I271738J0D01*
G01*
X149703262Y-55250000D01*
G75*
G02*
X149975000Y-55521738I0J-271738D01*
G01*
X149975000Y-56478262D01*
G75*
G02*
X149703262Y-56750000I-271738J0D01*
G01*
X148996738Y-56750000D01*
G75*
G02*
X148725000Y-56478262I0J271738D01*
G01*
G37*
%TD*%
D21*
%TO.C,RV1*%
X154600000Y-55950000D03*
X157140000Y-53410000D03*
X159680000Y-55950000D03*
%TD*%
%TO.C,RV2*%
X186320000Y-53250000D03*
X188860000Y-55790000D03*
X191400000Y-53250000D03*
%TD*%
%TO.C,U6*%
G36*
G01*
X158575000Y-59665000D02*
X158575000Y-59315000D01*
G75*
G02*
X158750000Y-59140000I175000J0D01*
G01*
X160450000Y-59140000D01*
G75*
G02*
X160625000Y-59315000I0J-175000D01*
G01*
X160625000Y-59665000D01*
G75*
G02*
X160450000Y-59840000I-175000J0D01*
G01*
X158750000Y-59840000D01*
G75*
G02*
X158575000Y-59665000I0J175000D01*
G01*
G37*
G36*
G01*
X158575000Y-60935000D02*
X158575000Y-60585000D01*
G75*
G02*
X158750000Y-60410000I175000J0D01*
G01*
X160450000Y-60410000D01*
G75*
G02*
X160625000Y-60585000I0J-175000D01*
G01*
X160625000Y-60935000D01*
G75*
G02*
X160450000Y-61110000I-175000J0D01*
G01*
X158750000Y-61110000D01*
G75*
G02*
X158575000Y-60935000I0J175000D01*
G01*
G37*
G36*
G01*
X158575000Y-62205000D02*
X158575000Y-61855000D01*
G75*
G02*
X158750000Y-61680000I175000J0D01*
G01*
X160450000Y-61680000D01*
G75*
G02*
X160625000Y-61855000I0J-175000D01*
G01*
X160625000Y-62205000D01*
G75*
G02*
X160450000Y-62380000I-175000J0D01*
G01*
X158750000Y-62380000D01*
G75*
G02*
X158575000Y-62205000I0J175000D01*
G01*
G37*
G36*
G01*
X158575000Y-63475000D02*
X158575000Y-63125000D01*
G75*
G02*
X158750000Y-62950000I175000J0D01*
G01*
X160450000Y-62950000D01*
G75*
G02*
X160625000Y-63125000I0J-175000D01*
G01*
X160625000Y-63475000D01*
G75*
G02*
X160450000Y-63650000I-175000J0D01*
G01*
X158750000Y-63650000D01*
G75*
G02*
X158575000Y-63475000I0J175000D01*
G01*
G37*
G36*
G01*
X163525000Y-63475000D02*
X163525000Y-63125000D01*
G75*
G02*
X163700000Y-62950000I175000J0D01*
G01*
X165400000Y-62950000D01*
G75*
G02*
X165575000Y-63125000I0J-175000D01*
G01*
X165575000Y-63475000D01*
G75*
G02*
X165400000Y-63650000I-175000J0D01*
G01*
X163700000Y-63650000D01*
G75*
G02*
X163525000Y-63475000I0J175000D01*
G01*
G37*
G36*
G01*
X163525000Y-62205000D02*
X163525000Y-61855000D01*
G75*
G02*
X163700000Y-61680000I175000J0D01*
G01*
X165400000Y-61680000D01*
G75*
G02*
X165575000Y-61855000I0J-175000D01*
G01*
X165575000Y-62205000D01*
G75*
G02*
X165400000Y-62380000I-175000J0D01*
G01*
X163700000Y-62380000D01*
G75*
G02*
X163525000Y-62205000I0J175000D01*
G01*
G37*
G36*
G01*
X163525000Y-60935000D02*
X163525000Y-60585000D01*
G75*
G02*
X163700000Y-60410000I175000J0D01*
G01*
X165400000Y-60410000D01*
G75*
G02*
X165575000Y-60585000I0J-175000D01*
G01*
X165575000Y-60935000D01*
G75*
G02*
X165400000Y-61110000I-175000J0D01*
G01*
X163700000Y-61110000D01*
G75*
G02*
X163525000Y-60935000I0J175000D01*
G01*
G37*
G36*
G01*
X163525000Y-59665000D02*
X163525000Y-59315000D01*
G75*
G02*
X163700000Y-59140000I175000J0D01*
G01*
X165400000Y-59140000D01*
G75*
G02*
X165575000Y-59315000I0J-175000D01*
G01*
X165575000Y-59665000D01*
G75*
G02*
X165400000Y-59840000I-175000J0D01*
G01*
X163700000Y-59840000D01*
G75*
G02*
X163525000Y-59665000I0J175000D01*
G01*
G37*
%TD*%
D22*
%TO.C,Q1*%
X176750000Y-93900000D03*
X174850000Y-93900000D03*
X175800000Y-96100000D03*
%TD*%
%TO.C,Q2*%
X171850000Y-94350000D03*
X170900000Y-92150000D03*
X172800000Y-92150000D03*
%TD*%
%TO.C,Q3*%
X168750000Y-90600000D03*
X166850000Y-90600000D03*
X167800000Y-92800000D03*
%TD*%
D20*
%TO.C,Q4*%
X206250000Y-79950000D03*
X204050000Y-80900000D03*
X204050000Y-79000000D03*
%TD*%
D23*
%TO.C,U1*%
X134600001Y-125990001D03*
X137140001Y-125990001D03*
X139680001Y-125990001D03*
X142220001Y-125990001D03*
X144760001Y-125990001D03*
X144760001Y-103130001D03*
X142220001Y-103130001D03*
X139680001Y-103130001D03*
X137140001Y-103130001D03*
X134600001Y-103130001D03*
%TD*%
%TO.C,U2*%
X155720001Y-103130001D03*
X158260001Y-103130001D03*
X160800001Y-103130001D03*
X163340001Y-103130001D03*
X165880001Y-103130001D03*
X165880001Y-125990001D03*
X163340001Y-125990001D03*
X160800001Y-125990001D03*
X158260001Y-125990001D03*
X155720001Y-125990001D03*
%TD*%
%TO.C,U3*%
X176840001Y-125990001D03*
X179380001Y-125990001D03*
X181920001Y-125990001D03*
X184460001Y-125990001D03*
X187000001Y-125990001D03*
X187000001Y-103130001D03*
X184460001Y-103130001D03*
X181920001Y-103130001D03*
X179380001Y-103130001D03*
X176840001Y-103130001D03*
%TD*%
%TO.C,U5*%
X197960001Y-103130001D03*
X200500001Y-103130001D03*
X203040001Y-103130001D03*
X205580001Y-103130001D03*
X208120001Y-103130001D03*
X208120001Y-125990001D03*
X205580001Y-125990001D03*
X203040001Y-125990001D03*
X200500001Y-125990001D03*
X197960001Y-125990001D03*
%TD*%
D24*
%TO.C,J2*%
X153250000Y-73300000D03*
D25*
X150710000Y-73300000D03*
%TD*%
D15*
%TO.C,D1*%
X141950000Y-60400000D03*
D16*
X139410000Y-60400000D03*
%TD*%
%TO.C,D6*%
X208300000Y-52050000D03*
D15*
X205760000Y-52050000D03*
%TD*%
%TO.C,D7*%
X142000000Y-52600000D03*
D16*
X139460000Y-52600000D03*
%TD*%
%TO.C,D8*%
X129750000Y-48000000D03*
D15*
X129750000Y-45460000D03*
%TD*%
%TO.C,D9*%
X177500000Y-36500000D03*
D16*
X177500000Y-33960000D03*
%TD*%
D26*
%TO.C,L1*%
X140700000Y-70250000D03*
X130500000Y-70250000D03*
%TD*%
%TO.C,C3*%
G36*
G01*
X161478262Y-79125000D02*
X160521738Y-79125000D01*
G75*
G02*
X160250000Y-78853262I0J271738D01*
G01*
X160250000Y-78146738D01*
G75*
G02*
X160521738Y-77875000I271738J0D01*
G01*
X161478262Y-77875000D01*
G75*
G02*
X161750000Y-78146738I0J-271738D01*
G01*
X161750000Y-78853262D01*
G75*
G02*
X161478262Y-79125000I-271738J0D01*
G01*
G37*
G36*
G01*
X161478262Y-81175000D02*
X160521738Y-81175000D01*
G75*
G02*
X160250000Y-80903262I0J271738D01*
G01*
X160250000Y-80196738D01*
G75*
G02*
X160521738Y-79925000I271738J0D01*
G01*
X161478262Y-79925000D01*
G75*
G02*
X161750000Y-80196738I0J-271738D01*
G01*
X161750000Y-80903262D01*
G75*
G02*
X161478262Y-81175000I-271738J0D01*
G01*
G37*
%TD*%
%TO.C,C6*%
G36*
G01*
X132675000Y-78271738D02*
X132675000Y-79228262D01*
G75*
G02*
X132403262Y-79500000I-271738J0D01*
G01*
X131696738Y-79500000D01*
G75*
G02*
X131425000Y-79228262I0J271738D01*
G01*
X131425000Y-78271738D01*
G75*
G02*
X131696738Y-78000000I271738J0D01*
G01*
X132403262Y-78000000D01*
G75*
G02*
X132675000Y-78271738I0J-271738D01*
G01*
G37*
G36*
G01*
X130625000Y-78271738D02*
X130625000Y-79228262D01*
G75*
G02*
X130353262Y-79500000I-271738J0D01*
G01*
X129646738Y-79500000D01*
G75*
G02*
X129375000Y-79228262I0J271738D01*
G01*
X129375000Y-78271738D01*
G75*
G02*
X129646738Y-78000000I271738J0D01*
G01*
X130353262Y-78000000D01*
G75*
G02*
X130625000Y-78271738I0J-271738D01*
G01*
G37*
%TD*%
M02*
